<?xml version="1.0" standalone="no"?><!DOCTYPE svg PUBLIC "-//W3C//DTD SVG 1.1//EN" "http://www.w3.org/Graphics/SVG/1.1/DTD/svg11.dtd"><svg t="1669027327601" class="icon" viewBox="0 0 1024 1024" version="1.1" xmlns="http://www.w3.org/2000/svg" p-id="6687" xmlns:xlink="http://www.w3.org/1999/xlink" width="200" height="200"><path d="M199.0656 284.4672c-31.4368 0-56.9344-25.4976-56.9344-56.9344 0-31.4368 25.4976-56.9344 56.9344-56.9344 31.4368 0 56.9344 25.4976 56.9344 56.9344 0 31.4368-25.4976 56.9344-56.9344 56.9344z m156.4672-99.5328h483.5328c23.552 0 42.7008 19.1488 42.7008 42.7008S862.6176 270.336 839.0656 270.336H355.5328c-23.552 0-42.7008-19.1488-42.7008-42.7008s19.1488-42.7008 42.7008-42.7008z m0 284.3648h483.5328c23.552 0 42.7008 19.1488 42.7008 42.7008s-19.1488 42.7008-42.7008 42.7008H355.5328c-23.552 0-42.7008-19.1488-42.7008-42.7008s19.1488-42.7008 42.7008-42.7008z m0 284.4672h483.5328c23.552 0 42.7008 19.1488 42.7008 42.7008s-19.1488 42.7008-42.7008 42.7008H355.5328c-23.552 0-42.7008-19.1488-42.7008-42.7008s19.1488-42.7008 42.7008-42.7008zM199.0656 568.9344c-31.4368 0-56.9344-25.4976-56.9344-56.9344 0-31.4368 25.4976-56.9344 56.9344-56.9344 31.4368 0 56.9344 25.4976 56.9344 56.9344s-25.4976 56.9344-56.9344 56.9344z m0 284.3648c-31.4368 0-56.9344-25.4976-56.9344-56.9344 0-31.4368 25.4976-56.9344 56.9344-56.9344 31.4368 0 56.9344 25.4976 56.9344 56.9344 0 31.5392-25.4976 56.9344-56.9344 56.9344z" fill="#323233" p-id="6688"></path></svg>